<mxfile host="app.diagrams.net" modified="2023-05-11T03:26:07.465Z" agent="Mozilla/5.0 (Windows NT 10.0; Win64; x64; rv:109.0) Gecko/20100101 Firefox/110.0" version="21.1.7" etag="RZPveWAHiK4swsclLNK7" type="github">
  <diagram name="第 1 页" id="132IKLt5JvKoHfWXO8Ht">
    <mxGraphModel>
      <root>
        <mxCell id="0" />
        <mxCell id="1" parent="0" />
      </root>
    </mxGraphModel>
  </diagram>
</mxfile>
